<?xml version="1.0" encoding="UTF-8" standalone="no"?>
<!DOCTYPE svg PUBLIC "-//W3C//DTD SVG 1.1//EN"
"http://www.w3.org/Graphics/SVG/1.1/DTD/svg11.dtd">


<!-- Page 1 -->
<svg x="0" y="0" width="935" height="1210" viewBox="0 0 935 1210" version="1.1" xmlns="http://www.w3.org/2000/svg" xmlns:xlink="http://www.w3.org/1999/xlink"
style="display: block;margin-left: auto;margin-right: auto;">
<defs>

<style type="text/css"><![CDATA[

.g0_1{
fill: none;
stroke: #a2aac5;
stroke-width: 5.5833335;
stroke-linecap: round;
stroke-linejoin: round;
stroke-miterlimit: 22;
}

]]></style>

</defs>
<path d="M0,0
L0,1210
L935,1210
L935,0 Z "
fill="#FFFFFF" stroke="none" />
<path d="M430.7,1155c-31.1,-1.6,-51.6,-5.2,-68.9,-11.7c-17.3,-6.4,-31.4,-15.5,-43.2,-25.8c-11.7,-10.3,-21.2,-21.9,-26.9,-37.1c-5.6,-15.2,-7.6,-34.1,-6.7,-51.2c.9,-17,4.6,-32.2,7.7,-43.6c3.1,-11.4,5.7,-18.9,11.2,-31.9c5.5,-13,14,-31.4,20.4,-46.1c6.3,-14.8,10.4,-25.8,12.9,-36.2c2.5,-10.4,3.3,-20.2,2.3,-29.6c-1.1,-9.3,-4,-18.3,-8.8,-31.9C325.9,796.3,319.2,778,314.2,762.1c-4.9,-16,-8.1,-29.6,-10,-42.8c-1.8,-13.2,-2.3,-26,.4,-38.9c2.8,-12.9,8.7,-25.9,16.4,-33.8c7.8,-8,17.4,-10.8,23.8,-10.6c6.4,.2,9.6,3.6,11,9c1.4,5.3,.9,12.7,1.9,21.7c1.1,8.9,3.6,19.5,7.5,28.2c3.8,8.6,8.9,15.3,15.4,19.7c6.5,4.5,14.4,6.5,21.8,5.8c7.5,-.7,14.5,-4.2,19.3,-8.5c4.8,-4.2,7.4,-9.2,8.7,-15.8c1.2,-6.5,1.2,-14.7,1.3,-28.7c.1,-14,.3,-33.9,1.2,-99.8c1,-65.9,2.7,-177.9,3.8,-235.1c1,-57.3,1.3,-59.9,0,-62.6c-1.3,-2.8,-4.3,-5.7,-7.1,-8.6c-2.9,-2.9,-5.7,-5.7,-7.1,-9.2c-1.1,-2.6,-1.4,-5.6,-.1,-11.9h-5.6c-1.8,3.6,-5.2,6.1,-9,6.1c-5.7,0,-10.4,-5.5,-10.4,-12.2c0,-6.8,4.7,-12.3,10.4,-12.3c3.8,0,7.2,2.5,9,6.1h8.5c1.5,-5.2,3.3,-11.5,5.5,-19.1h-4.3c-1.8,3.7,-5.2,6.2,-9,6.2c-5.7,0,-10.4,-5.5,-10.4,-12.3c0,-6.8,4.7,-12.2,10.4,-12.2c3.8,0,7.2,2.4,9,6.1h7.9c1.7,-5.8,3.5,-12.1,5.5,-19.1h-3.7c-1.8,3.7,-5.2,6.2,-9,6.2c-5.7,0,-10.4,-5.5,-10.4,-12.3c0,-6.8,4.7,-12.3,10.4,-12.3c3.8,0,7.2,2.5,9,6.2h7.2c1.8,-6.2,3.6,-12.6,5.5,-19.1h-3c-1.8,3.7,-5.1,6.1,-9,6.1c-5.7,0,-10.4,-5.5,-10.4,-12.2c0,-6.8,4.7,-12.3,10.4,-12.3c3.9,0,7.2,2.5,9,6.1h6.5c1.8,-6.5,3.7,-12.9,5.5,-19h-2.3c-1.8,3.6,-5.1,6.1,-9,6.1c-5.7,0,-10.4,-5.5,-10.4,-12.3c0,-6.7,4.7,-12.2,10.4,-12.2c3.9,0,7.2,2.4,9,6.1h6c1.3,-4.3,2.5,-8.3,3.7,-11.9c.9,-2.6,1.6,-5,2.4,-7.2h-2.4c-1.8,3.7,-5.1,6.2,-9,6.2c-5.7,0,-10.4,-5.5,-10.4,-12.3c0,-6.8,4.7,-12.3,10.4,-12.3c3.9,0,7.2,2.5,9,6.2h7.2C475.9,64,479,60.6,483.1,58.5C489.7,55,499,55,506.5,57.5C514.1,60,519.8,65,524,69.7c4.1,4.7,6.7,9.2,6,14.7c-.7,5.6,-4.7,12.1,-8.7,21.4c-3.9,9.2,-7.7,21,-9.3,32.1c-1.5,11.2,-.7,21.6,1,32.7c1.7,11.2,4.3,23,5.8,31.2c1.5,8.1,2,12.6,0,17.7c-2,5,-6.5,10.6,-11,18c-4.5,7.4,-9,16.5,-11.5,24.1c-2.4,7.6,-2.9,13.7,-2.8,48.9c.2,35.3,1,99.7,2.2,178.3c1.2,78.7,2.8,171.6,3.6,218.5c.8,46.9,.8,47.9,1,49c.1,1,.4,2.2,2.7,5.1c2.3,2.8,6.6,7.3,12.6,9.9c6,2.7,13.9,3.5,22.2,1.9c8.3,-1.5,17,-5.5,23,-10.1c5.9,-4.6,9.1,-9.8,11.5,-15.5c2.3,-5.6,3.7,-11.6,4.5,-17c.8,-5.3,1,-9.9,2.6,-14.1c1.5,-4.2,4.5,-7.9,8.6,-9.7c4,-1.9,9.3,-2,14.1,.7c4.8,2.7,9.2,8.1,12.8,14.6c3.6,6.5,6.4,14,7.7,22.8c1.4,8.8,1.3,18.9,-.1,28.7c-1.5,9.7,-4.3,19.1,-8.3,29.5c-4.1,10.5,-9.3,22.1,-12.6,33c-3.3,10.8,-4.6,20.8,-4.7,29.6c-.1,8.7,.9,16.2,4.6,27c3.8,10.7,10.2,24.6,17.9,41.4c7.6,16.7,16.6,36.3,22.3,52.6c5.7,16.3,8.1,29.5,9.2,41c1.2,11.6,1.1,21.6,-.7,32.6c-1.8,11.1,-5.3,23.1,-10,33.4c-4.7,10.3,-10.7,19,-18.8,26.4c-8.2,7.5,-18.6,13.7,-31.7,19.4c-13,5.6,-28.7,10.7,-57.4,13.5c-28.7,2.8,-70.5,3.5,-101.6,2Z" class="g0_1" />

</svg>
